<?xml version="1.0" encoding="UTF-8" standalone="no"?>
<svg
   xmlns:dc="http://purl.org/dc/elements/1.1/"
   xmlns:cc="http://creativecommons.org/ns#"
   xmlns:rdf="http://www.w3.org/1999/02/22-rdf-syntax-ns#"
   xmlns:svg="http://www.w3.org/2000/svg"
   xmlns="http://www.w3.org/2000/svg"
   width="200"
   height="200"
   viewBox="0 0 40.96 40.96"
   version="1.1"
   id="svg6213">
  <metadata
     id="metadata6219">
    <rdf:RDF>
      <cc:Work
         rdf:about="">
        <dc:format>image/svg+xml</dc:format>
        <dc:type
           rdf:resource="http://purl.org/dc/dcmitype/StillImage" />
        <dc:title></dc:title>
      </cc:Work>
    </rdf:RDF>
  </metadata>
  <defs
     id="defs6217" />
  <g
     id="g7943"
     transform="matrix(0.09341736,0,0,0.09341736,-3.8085136,2.7307016)">
    <circle
       style="fill:#000000;fill-opacity:1;fill-rule:evenodd;stroke-width:0.174353;stroke-linecap:round;stroke-linejoin:round"
       id="path6782"
       cx="260"
       cy="190"
       r="190" />
    <path
       fill="#cf649a"
       d="m 367.06583,206.50863 c -10.37404,0.0585 -19.35714,2.55004 -26.89134,6.25977 -2.78187,-5.50577 -5.56373,-10.31665 -6.0268,-13.90932 -0.5216,-4.17279 -1.15911,-6.72342 -0.5216,-11.70701 0.63693,-4.98475 3.53471,-12.05533 3.53471,-12.63488 -0.0585,-0.5216 -0.63809,-3.07164 -6.60693,-3.1296 -5.96884,-0.058 -11.12746,1.15911 -11.70701,2.72391 -0.57956,1.5648 -1.73867,5.15804 -2.49209,8.86719 -1.0432,5.44782 -11.93884,24.74701 -18.14008,34.88922 -2.02844,-3.94098 -3.7671,-7.41831 -4.11542,-10.20075 -0.52102,-4.17222 -1.15911,-6.72284 -0.52102,-11.70643 0.63751,-4.98476 3.53529,-12.05475 3.53529,-12.6343 -0.058,-0.5216 -0.63751,-3.07165 -6.60635,-3.1296 -5.97,-0.0579 -11.12746,1.15911 -11.70701,2.72391 -0.57956,1.5648 -1.21707,5.27395 -2.49209,8.86719 -1.21764,3.59324 -15.70652,35.8165 -19.47363,44.22005 -1.91253,4.28871 -3.59266,7.70809 -4.81031,10.02631 -1.21706,2.31822 -0.058,0.17386 -0.17386,0.40569 -1.0432,1.97048 -1.62276,3.07164 -1.62276,3.07164 v 0.0585 c -0.81138,1.44888 -1.68071,2.83924 -2.08698,2.83924 -0.28977,0 -0.86933,-3.88302 0.11591,-9.21435 2.14436,-11.18599 7.36035,-28.63002 7.30298,-29.26753 0,-0.28978 0.98466,-3.362 -3.362,-4.92622 -4.23075,-1.5648 -5.73702,1.0432 -6.08533,1.0432 -0.34773,0 -0.63751,0.92729 -0.63751,0.92729 0,0 4.6944,-19.64634 -8.9831,-19.64634 -8.57742,0 -20.40034,9.33084 -26.25385,17.8503 -3.70915,2.02844 -11.5911,6.31657 -19.9367,10.89563 -3.18755,1.73867 -6.49101,3.59324 -9.62061,5.27395 l -0.63693,-0.69662 c -16.57528,-17.67643 -47.23374,-30.19482 -45.95872,-53.95658 0.46364,-8.63537 3.47733,-31.41189 58.88338,-58.99871 45.37916,-22.602659 81.71727,-16.401412 88.03384,-2.608 8.9831,19.70488 -19.4151,56.33276 -66.59031,61.60671 -17.9662,2.02844 -27.41353,-4.92622 -29.78913,-7.53422 -2.49208,-2.72391 -2.83982,-2.83982 -3.76711,-2.31822 -1.50684,0.81138 -0.57955,3.24551 0,4.6944 1.39094,3.6512 7.18649,10.14221 17.03892,13.38772 8.6348,2.83982 29.73118,4.40462 55.23161,-5.44782 28.57206,-11.0695 50.88494,-41.78592 44.33596,-67.46021 -6.66488,-26.137929 -50.0156,-34.715349 -90.99015,-20.168519 -24.39985,8.693325 -50.82756,22.254919 -69.83697,40.047259 -22.60265,21.09581 -26.19589,39.52566 -24.68905,47.17579 5.27453,27.29704 42.88708,45.08938 57.95551,58.24528 -0.75342,0.40511 -1.44889,0.8108 -2.0864,1.15911 -7.53421,3.70858 -36.22219,18.71963 -43.40867,34.59886 -8.11378,17.96621 1.27502,30.89088 7.53421,32.62954 19.35714,5.38986 39.17793,-4.28871 49.8997,-20.22648 10.66323,-15.93777 9.38879,-36.62788 4.46257,-46.07463 l -0.17444,-0.34773 5.91146,-3.47733 c 3.82564,-2.26027 7.59275,-4.34667 10.89563,-6.14387 -1.85399,5.04213 -3.18755,11.01155 -3.88244,19.70488 -0.81137,10.20074 3.36142,23.41402 8.8672,28.63002 2.43413,2.25968 5.33191,2.31822 7.12853,2.31822 6.3751,0 9.27288,-5.27453 12.46043,-11.5911 3.94098,-7.70809 7.41831,-16.63323 7.41831,-16.63323 0,0 -4.34667,24.16744 7.53421,24.16744 4.34667,0 8.69333,-5.62168 10.66382,-8.51946 v 0.058 c 0,0 0.11591,-0.17386 0.34773,-0.57955 a 20.939326,20.939326 0 0 0 0.69547,-1.10058 v -0.11591 c 1.73866,-3.01369 5.62168,-9.91039 11.41723,-21.32762 7.47568,-14.7207 14.66275,-33.15055 14.66275,-33.15055 0,0 0.69546,4.52052 2.83982,11.93883 1.27444,4.4052 4.0563,9.21492 6.20066,13.90932 -1.73867,2.43413 -2.78187,3.82564 -2.78187,3.82564 l 0.058,0.058 c -1.39036,1.85458 -2.95573,3.82565 -4.57791,5.79556 -5.91146,7.07057 -12.98203,15.12696 -13.90932,17.44518 -1.10116,2.72333 -0.86933,4.75177 1.27502,6.37511 1.5648,1.15911 4.34666,1.39035 7.30239,1.15911 5.33191,-0.34831 9.04106,-1.68071 10.89564,-2.49267 2.89778,-1.0432 6.20124,-2.608 9.38879,-4.92622 5.79555,-4.28813 9.33084,-10.37345 8.98311,-18.48722 -0.17387,-4.46258 -1.62276,-8.8672 -3.41938,-13.03999 0.5216,-0.75343 1.04378,-1.50743 1.5648,-2.31822 9.15697,-13.38831 16.22754,-28.10842 16.22754,-28.10842 0,0 0.69547,4.52052 2.83982,11.93883 1.10058,3.76711 3.30347,7.88253 5.27396,11.93941 -8.57742,7.01262 -13.96728,15.12639 -15.82186,20.4583 -3.41937,9.85243 -0.75342,14.31501 4.28871,15.35821 2.25969,0.46364 5.50577,-0.57956 7.93933,-1.62276 3.01368,-0.98524 6.66488,-2.66653 10.02688,-5.15804 5.79555,-4.2887 11.35927,-10.25812 11.06949,-18.31394 -0.17387,-3.70915 -1.15911,-7.36035 -2.49209,-10.83768 7.3024,-3.01368 16.74857,-4.75235 28.74594,-3.30346 25.7902,3.01368 30.89028,19.12532 29.90562,25.84816 -0.98524,6.72341 -6.37511,10.43199 -8.17231,11.5911 -1.79662,1.10115 -2.37617,1.50742 -2.20231,2.31822 0.23183,1.21764 1.0432,1.15911 2.608,0.92786 2.14436,-0.34831 13.56159,-5.50577 14.02524,-17.90767 0.69546,-15.94008 -14.43093,-33.32673 -41.26433,-33.15345 z m -198.9033,67.05452 c -8.51946,9.33084 -20.51625,12.86613 -25.61634,9.85244 -5.50577,-3.18755 -3.362,-16.92301 7.12853,-26.8334 6.37511,-6.02737 14.66274,-11.5911 20.11056,-15.01048 1.21707,-0.75342 3.07164,-1.85399 5.27395,-3.18755 0.34774,-0.23124 0.57956,-0.34773 0.57956,-0.34773 0.40569,-0.23182 0.86933,-0.5216 1.33297,-0.81138 3.88302,14.14114 0.17387,26.54362 -8.80923,36.3381 z m 62.30217,-42.36547 c -2.95573,7.24444 -9.21492,25.84815 -12.98203,24.80495 -3.24609,-0.86933 -5.216,-14.95252 -0.63809,-28.86184 2.31822,-7.0132 7.24444,-15.35821 10.14221,-18.6043 4.69498,-5.21599 9.79448,-6.95466 11.07008,-4.8103 1.50685,2.78244 -5.73759,22.95096 -7.59217,27.47149 z m 51.40654,24.57313 c -1.27502,0.63809 -2.43413,1.10116 -2.95573,0.754 -0.40569,-0.23182 0.52102,-1.10115 0.52102,-1.10115 0,0 6.43306,-6.89671 8.9831,-10.08426 1.44889,-1.854 3.18756,-3.99835 5.04213,-6.43306 v 0.69547 c 5.8e-4,8.34501 -7.99728,13.90874 -11.59052,16.169 z m 39.64099,-9.04106 c -0.92729,-0.69546 -0.8108,-2.83982 2.31822,-9.56266 1.21765,-2.66595 3.99893,-7.12852 8.80924,-11.35928 0.57955,1.73867 0.92787,3.4188 0.86933,4.98418 -0.0574,10.43199 -7.47568,14.31501 -11.99679,15.93776 z"
       id="path6211"
       style="stroke-width:0.579555" />
  </g>
</svg>
