<?xml version="1.0" encoding="UTF-8" standalone="no"?>
<svg
   xmlns:dc="http://purl.org/dc/elements/1.1/"
   xmlns:cc="http://creativecommons.org/ns#"
   xmlns:rdf="http://www.w3.org/1999/02/22-rdf-syntax-ns#"
   xmlns:svg="http://www.w3.org/2000/svg"
   xmlns="http://www.w3.org/2000/svg"
   height="200"
   preserveAspectRatio="xMidYMid"
   viewBox="0 -1.428 23.00468 23.20864"
   width="200"
   version="1.1"
   id="svg14">
  <metadata
     id="metadata20">
    <rdf:RDF>
      <cc:Work
         rdf:about="">
        <dc:format>image/svg+xml</dc:format>
        <dc:type
           rdf:resource="http://purl.org/dc/dcmitype/StillImage" />
        <dc:title></dc:title>
      </cc:Work>
    </rdf:RDF>
  </metadata>
  <defs
     id="defs18" />
  <g
     id="g876"
     transform="translate(1.3835619,1.3835621)">
    <g
       id="g865"
       transform="matrix(0.87886122,0,0,0.87886122,0.00981725,-0.15081522)">
      <circle
         style="fill:#413590;fill-opacity:1;fill-rule:evenodd;stroke-width:0.116043;stroke-linecap:round;stroke-linejoin:round"
         id="path855"
         cx="11.50234"
         cy="10.17632"
         r="11.421299" />
      <g
         id="g851"
         transform="matrix(0.0621679,0,0,0.05531374,3.5578417,2.2318149)">
        <path
           d="m 255.569,84.452 c -0.002,-4.83 -1.035,-9.098 -3.124,-12.76 -2.052,-3.603 -5.125,-6.622 -9.247,-9.009 C 209.173,43.064 175.115,23.505 141.101,3.866 131.931,-1.428 123.04,-1.234 113.938,4.136 100.395,12.122 32.59,50.969 12.385,62.672 4.064,67.49 0.015,74.862 0.013,84.443 0,123.898 0.013,163.353 0,202.808 c 0,4.724 0.991,8.91 2.988,12.517 2.053,3.711 5.169,6.813 9.386,9.254 20.206,11.703 88.02,50.547 101.56,58.536 9.106,5.373 17.997,5.565 27.17,0.27 34.015,-19.64 68.075,-39.199 102.105,-58.818 4.217,-2.44 7.333,-5.544 9.386,-9.252 1.994,-3.608 2.987,-7.793 2.987,-12.518 0,0 0,-78.889 -0.013,-118.345"
           fill="#a179dc"
           id="path2" />
        <path
           d="M 128.182,143.241 2.988,215.325 c 2.053,3.711 5.169,6.813 9.386,9.254 20.206,11.703 88.02,50.547 101.56,58.536 9.106,5.373 17.997,5.565 27.17,0.27 34.015,-19.64 68.075,-39.199 102.105,-58.818 4.217,-2.44 7.333,-5.544 9.386,-9.252 z"
           fill="#280068"
           id="path4" />
        <path
           d="m 255.569,84.452 c -0.002,-4.83 -1.035,-9.098 -3.124,-12.76 l -124.263,71.55 124.413,72.073 c 1.994,-3.608 2.985,-7.793 2.987,-12.518 0,0 0,-78.889 -0.013,-118.345"
           fill="#390091"
           id="path6" />
        <g
           fill="#ffffff"
           id="g12">
          <path
             d="m 201.892,116.294 v 13.474 h 13.474 v -13.474 h 6.737 v 13.474 h 13.474 v 6.737 h -13.474 v 13.473 h 13.474 v 6.737 h -13.474 v 13.474 h -6.737 v -13.474 h -13.474 v 13.474 h -6.737 v -13.474 h -13.473 v -6.737 h 13.473 v -13.473 h -13.473 v -6.737 h 13.473 v -13.474 z m 13.474,20.21 h -13.474 v 13.474 h 13.474 z"
             id="path8" />
          <path
             d="m 128.457,48.626 c 35.144,0 65.827,19.086 82.262,47.456 l -0.16,-0.273 -41.35,23.808 c -8.146,-13.793 -23.08,-23.102 -40.213,-23.294 l -0.54,-0.003 c -26.125,0 -47.305,21.18 -47.305,47.305 a 47.08,47.08 0 0 0 6.239,23.47 c 8.154,14.235 23.483,23.836 41.067,23.836 17.693,0 33.109,-9.723 41.221,-24.11 l -0.197,0.345 41.287,23.918 c -16.255,28.13 -46.518,47.157 -81.253,47.536 l -1.058,0.006 c -35.255,0 -66.025,-19.204 -82.419,-47.724 -8.003,-13.923 -12.582,-30.064 -12.582,-47.277 0,-52.466 42.532,-95 95,-95 z"
             id="path10" />
        </g>
      </g>
    </g>
  </g>
</svg>
