<?xml version="1.0" encoding="UTF-8" standalone="no"?>
<svg
   xmlns:dc="http://purl.org/dc/elements/1.1/"
   xmlns:cc="http://creativecommons.org/ns#"
   xmlns:rdf="http://www.w3.org/1999/02/22-rdf-syntax-ns#"
   xmlns:svg="http://www.w3.org/2000/svg"
   xmlns="http://www.w3.org/2000/svg"
   style="isolation:isolate"
   viewBox="0 0 150 150"
   width="150pt"
   height="150pt"
   version="1.1"
   id="svg1486">
  <metadata
     id="metadata1492">
    <rdf:RDF>
      <cc:Work
         rdf:about="">
        <dc:format>image/svg+xml</dc:format>
        <dc:type
           rdf:resource="http://purl.org/dc/dcmitype/StillImage" />
        <dc:title></dc:title>
      </cc:Work>
    </rdf:RDF>
  </metadata>
  <defs
     id="defs1490" />
  <g
     id="g857">
    <circle
       vector-effect="non-scaling-stroke"
       cx="75"
       cy="75"
       r="65"
       fill="#563d7c"
       id="circle2055"
       style="isolation:isolate;fill:#f0db4f;fill-opacity:1" />
    <path
       id="path849"
       style="fill:#323330;fill-opacity:1;stroke-width:0.75"
       d="m 93.783763,48.603921 c -1.549775,0.05309 -3.033186,0.338017 -5.230956,0.880371 -8.66409,2.138078 -13.226079,7.108348 -13.226079,14.412598 0,6.961925 4.404682,11.762157 14.131352,15.401367 5.41502,2.02602 8.021484,4.291669 8.021484,6.972656 0,4.919558 -5.705915,6.747079 -14.438965,4.624512 -2.880199,-0.700035 -5.535211,-1.088492 -5.90039,-0.862793 -0.36518,0.22569 -1.061115,1.98933 -1.546878,3.918455 -1.123065,4.460122 -0.470805,5.183437 5.992678,6.645993 2.948601,0.6672 6.82129,0.94986 9.94043,0.72363 11.533451,-0.83649 17.765631,-6.355916 17.765631,-15.733879 0,-7.215502 -3.11483,-10.962354 -12.443853,-14.967773 -7.406161,-3.179843 -10.379924,-5.657915 -9.666504,-8.056641 1.14187,-3.839302 4.692475,-4.935506 11.956054,-3.689942 5.981883,1.025781 6.595593,0.685145 7.507323,-4.174804 0.69237,-3.690615 -0.38241,-4.520351 -7.233397,-5.58545 -2.46189,-0.38274 -4.078154,-0.561387 -5.62793,-0.5083 z m -32.891602,0.69873 c -1.591553,-0.01757 -3.146198,0.07942 -3.862793,0.259278 l -1.737307,0.435058 v 18.023438 c 0,19.890202 -0.301845,21.459562 -4.454588,23.179687 -1.43151,0.592942 -3.52077,0.755073 -5.635252,0.437988 -3.095648,-0.46422 -3.389048,-0.367345 -3.711915,1.226075 -1.41495,6.983209 -1.172513,7.671015 2.926755,8.337885 3.881692,0.6315 11.021587,-0.27777 13.962892,-1.778313 3.416475,-1.742955 6.215348,-5.283 7.375493,-9.329592 0.57381,-2.001285 0.78549,-9.241965 0.635737,-21.75 l -0.224122,-18.75 -3.700193,-0.234375 c -0.508792,-0.0322 -1.044187,-0.05127 -1.574707,-0.05713 z" />
  </g>
</svg>
